<?xml version="1.0" standalone="no"?>
<!DOCTYPE svg PUBLIC "-//W3C//DTD SVG 1.1//EN" "http://www.w3.org/Graphics/SVG/1.1/DTD/svg11.dtd" >
<svg xmlns="http://www.w3.org/2000/svg">
<metadata>Generated by IcoMoon</metadata>
<defs>
<font id="icomoon" horiz-adv-x="1024">
<font-face units-per-em="1024" ascent="960" descent="-64" />
<missing-glyph horiz-adv-x="1024" />
<glyph unicode="&#x20;" horiz-adv-x="512" d="" />
<glyph unicode="&#xe900;" glyph-name="arrow" d="M284.608 757.68l326.032-309.408-330.048-313.68c-10.896-10.64-17.504-25.248-17.504-41.024 0-32.688 27.824-59.056 62.24-59.056 16.624 0 31.824 6.304 43.008 16.64l373.648 354.4c11.44 10.608 18.928 25.824 18.928 42.448v0.288c0 16.624-7.488 31.824-19.2 42.432l-373.376 354.416c-11.184 10.336-26.4 16.352-43.008 16.352-34.416 0-62.24-26.368-62.24-59.072 0-17.776 8.32-33.84 21.52-44.736z" />
<glyph unicode="&#xe901;" glyph-name="arrow-alt" d="M800.512 483.216l-763.072-0.4c-19.472 0.016-36.32-13.888-37.392-34.416-0.96-20.528 14.080-36.32 33.68-36.368l765.936 0.24 0.208-139.952c-0.176-14.56 7.664-27.696 19.84-33.264 3.984-1.84 8.080-2.592 12.368-2.576 8.368 0.064 16.816 3.84 22.992 10.784l159.728 179.584c5.776 6.592 9.232 15.536 9.168 24.848-0.048 9.2-3.312 18.096-9.2 24.752l-159.888 176.144c-8.944 10.080-22.592 13.344-34.544 8.096-11.968-5.28-19.872-17.856-19.952-31.856l0.128-145.616z" />
<glyph unicode="&#xe902;" glyph-name="checkmark" d="M1002.384 696.112l-560.448-608.672c-13.472-14.176-31.568-23.024-51.776-23.024s-38.656 8.864-51.776 23.024l-317.104 344.048c-13.12 14.56-21.28 34.416-21.28 56.048 0 44 32.624 79.472 73.072 79.472 20.208 0 38.656-8.88 51.776-23.056l265.312-288.032 509.008 552.64c13.088 14.192 31.552 23.056 51.744 23.056 40.112 0 73.072-35.472 73.072-79.456 0.016-21.664-8.16-41.52-21.6-56.048z" />
<glyph unicode="&#xe903;" glyph-name="customhardware" d="M985.968 472.256c-50.288 117.808-100.464 235.6-150.384 353.6-3.008 7.088-7.184 7.968-13.712 7.968-196.592-0.208-393.184-0.112-589.776-0.208-13.216 0-29.568 4.096-38.816-2.24-9.44-6.224-11.952-22.96-17.216-35.216l-168.176-395.12c-2.336-5.424-5.264-10.704-7.888-16.048v-323.92h1024v323.92c-12.736 29.088-25.584 58.064-38.032 87.264zM959.328 126.048h-894.832v192.032h894.832v-192.032zM128.32 253.392h63.024v-62.656h-63.024v62.656zM256.704 253.392h62.656v-63.040h-62.656v63.040zM384.72 253.392h62.656v-63.040h-62.656v63.040zM832.864 253.968h62.352v-63.424h-62.352v63.424z" />
<glyph unicode="&#xe904;" glyph-name="email" d="M1002.144 647.936l-438.4-296.736c-19.44-13.040-33.088-14.544-51.616-14.544-18.8 0-32.16 1.504-51.568 14.544l-438.416 296.736c-22.144 14.88-22.144-2.72-22.144-16.368v-539.76c0-30.976 31.824-70.672 56.416-70.672h911.136c24.864 0 56.432 39.696 56.432 70.672v539.76c0.016 13.648 0.32 31.248-21.84 16.368zM33.952 795.104l426.608-296.432c14.256-10.016 32.768-14.848 51.568-14.848 18.512 0 37.024 4.832 51.616 14.848l426.576 296.432c27.584 19.072 54.016 79.76 3.008 79.76h-962.384c-50.976 0.016-24.896-60.672 3.008-79.76z" />
<glyph unicode="&#xe905;" glyph-name="facebook" d="M398.432 30.864v404.464h-100.8v151.84h100.8c0 260.512 11.152 277.968 327.92 277.968v-151.68c-166.944 0-151.296-9.328-151.296-126.304h151.296v-151.84h-151.296v-404.448h-176.624z" />
<glyph unicode="&#xe906;" glyph-name="filter" d="M390.032 476.128c10.736-11.696 16.656-26.976 16.656-42.784v-465.664c0-28.016 33.808-42.24 53.824-22.528l129.888 148.864c17.392 20.864 26.976 31.168 26.976 51.808v287.424c0 15.808 6.016 31.072 16.656 42.768l372.72 404.432c27.904 30.352 6.416 79.552-34.88 79.552h-919.696c-41.296 0-62.912-49.088-34.864-79.552l372.72-404.32z" />
<glyph unicode="&#xe907;" glyph-name="flag" d="M297.36 671.6v-255.552c0-17.552-14.384-31.952-31.792-31.952-17.552 0-31.76 14.4-31.76 31.952v255.552c0 17.552 14.224 31.952 31.76 31.952 17.408-0.016 31.792-14.4 31.792-31.952zM233.792 277.44c0 0 47.584 42.8 143.104 42.8 111.92 0 201.68-79.824 298.48-79.824 82.72 0 143.072 35.904 175.824 68.976 10.544 10.528 18.528 28.736 18.528 45.808v389.36c0 19.504-13.424 35.472-32.912 35.472-13.264 0-23.168-7.984-33.216-18.064-13.6-13.568-53.184-42.464-148.048-42.464-86.704 0-155.392 79.856-267.36 79.856-107.776 0-154.416-35.296-154.416-35.296v27.312c0 22.016-17.888 39.904-39.744 39.904-22.064 0-39.792-17.888-39.792-39.904v-686.752c0-22.064 17.728-39.904 39.792-39.904 21.856 0 39.744 17.84 39.744 39.904v172.816z" />
<glyph unicode="&#xe908;" glyph-name="google" d="M922.544 531.984c-2.688 1.552-3.808 2.656-5.072 2.832-3.456 0.496-6.96 0.832-10.448 0.832-127.904-0.256-383.696-0.896-383.696-0.896s-1.584-172.032-0.88-173.248l224.768-2.4c-10.224-46-31.232-83.664-66.816-112.896-57.584-47.248-124.96-59.216-196.112-50.032-63.008 8.096-115.52 39.056-154.944 89.056-61.904 78.544-75.808 165.696-39.424 259.152 35.968 92.4 134.448 167.936 253.952 156.288 46.208-4.528 87.088-20 123.264-48.736 5.312-4.208 10.896-8.080 14.96-11.104 41.856 42.064 82.336 82.752 123.712 124.32-1.792 1.872-4.368 5.056-7.456 7.68-105.472 90.432-227.536 121.504-362.704 95.232-107.456-20.864-194.528-77.424-260.112-165.744-43.056-57.952-69.824-122.528-79.44-194.304-7.216-54.128-5.84-107.792 7.392-160.72 22.8-91.264 69.744-167.872 142.208-228.336 66.496-55.504 143.056-88.688 228.944-97.376 54.576-5.536 109.408-2.656 163.024 11.744 114.288 30.72 199.504 97.552 251.088 204.592 40.416 83.84 49.984 172.976 39.632 264.704-1.168 10.256-4 20.32-5.84 29.36z" />
<glyph unicode="&#xe909;" glyph-name="heart" d="M736.032 900.624c-76.944 0-138.608-27.952-192.976-82.848l-0.128-0.096-30.992-39.296-30.896 36.896-0.096 0.080c-54.352 55.008-116.032 85.248-192.992 85.248s-149.216-30.224-203.68-85.248c-54.368-54.896-84.272-128.032-84.272-205.744 0-77.616 29.904-150.64 84.272-205.664l382.272-389.456c12-12.256 28.384-19.12 45.408-19.12 17.136 0 33.504 6.88 45.52 19.12l382.272 389.456c54.352 54.912 84.256 128.048 84.256 205.664 0 77.712-29.904 150.848-84.368 205.76-54.384 55.008-126.736 85.248-203.6 85.248z" />
<glyph unicode="&#xe90a;" glyph-name="image" d="M966.832 900.704h-909.664c-31.504 0-57.168-25.648-57.168-57.168v-791.072c0-31.536 25.664-57.184 57.168-57.184h909.664c31.52 0 57.168 25.664 57.168 57.184v791.072c0 31.52-25.664 57.168-57.168 57.168zM955.392 63.904h-886.784v768.192h886.784v-768.192zM422.912 670.912c0-52.021-42.171-94.192-94.192-94.192s-94.192 42.171-94.192 94.192c0 52.021 42.171 94.192 94.192 94.192s94.192-42.171 94.192-94.192zM370.88 485.936l-275.312-224.688v-175.216l680.448-0.624zM932.176 84.752v317.584l-197.072 183.856-235.888-199.2 305.568-302.24z" />
<glyph unicode="&#xe90b;" glyph-name="images" d="M864.672 802.624h-813.536c-28.192 0-51.136-22.944-51.136-51.136v-707.488c0-28.192 22.944-51.12 51.136-51.12h813.536c28.192 0 51.12 22.944 51.12 51.12v707.488c0 28.192-22.928 51.136-51.12 51.136zM854.432 54.256h-793.072v687.008h793.072v-687.008zM378.224 597.104c0-46.524-37.716-84.24-84.24-84.24s-84.24 37.716-84.24 84.24c0 46.524 37.716 84.24 84.24 84.24s84.24-37.716 84.24-84.24zM331.68 431.664l-246.208-200.944v-156.688l608.544-0.56zM833.664 72.88v284.032l-176.224 164.432-210.976-178.16 273.28-270.304zM972.88 903.136h-813.568c-28.192 0-51.136-22.944-51.136-51.136v-10.224h854.464v-748.4h10.24c28.192 0 51.12 22.944 51.12 51.12v707.504c0 28.192-22.944 51.136-51.12 51.136z" />
<glyph unicode="&#xe90c;" glyph-name="instagram" d="M755.312 844.592h-486.624c-84.528 0-153.296-68.752-153.296-153.28v-486.624c0-84.528 68.768-153.28 153.296-153.28h486.624c84.528 0 153.296 68.752 153.296 153.28v486.624c0 84.528-68.768 153.28-153.296 153.28zM799.28 753.184l17.536 0.064v-134.448l-134-0.432-0.448 134.432 116.912 0.384zM398.8 529.408c25.392 35.152 66.608 58.224 113.2 58.224s87.808-23.056 113.2-58.224c16.528-22.944 26.416-51.008 26.416-81.408 0-76.976-62.672-139.6-139.632-139.6-76.992 0-139.616 62.624-139.616 139.6 0.016 30.4 9.904 58.464 26.432 81.408zM831.328 204.688c0-41.936-34.096-76-76.016-76h-486.624c-41.92 0-76.016 34.064-76.016 76v324.72h118.4c-10.224-25.152-15.968-52.624-15.968-81.408 0-119.568 97.28-216.912 216.896-216.912s216.896 97.344 216.896 216.912c0 28.784-5.776 56.256-16 81.408h118.432v-324.72z" />
<glyph unicode="&#xe90d;" glyph-name="iot" d="M912.16 562.656c-1.904 1.104-5.424 3.136-5.792 3.264 0 0-0.064 0.368-0.176 1.232-11.008 82.128-55.312 129.232-121.536 129.232-21.824 0-45.568-5.184-70.8-15.488-57.952 79.104-131.872 106.352-217.088 79.904-76.816-23.856-120.72-91.184-123.552-189.536-0.256-3.52-6.608-12.832-12.944-16.512-68.752-40.016-99.152-106.736-81.264-178.56 17.632-70.976 78.432-115.040 158.64-115.168h402.672c78.944 0.064 139.424 42.656 157.904 111.216 19.616 72.96-14.976 149.472-86.064 190.416zM964.688 381.264c-14.432-53.6-60.928-85.584-124.368-85.664-134.224-0.064-268.432-0.064-402.608 0-64.496 0.080-111.232 33.296-125.040 88.928-14.128 56.912 9.616 108.016 65.104 140.336 14.432 8.432 29.6 27.68 30.144 45.44 1.664 58.272 20.224 132.944 99.2 157.472 17.696 5.504 34.848 8.336 50.944 8.336 49.136 0 91.248-25.152 128.8-76.96 2.224-3.008 4.56-5.36 6.912-7.648 0.992-0.992 2.032-2.032 3.2-3.2 5.12-5.376 13.072-6.912 19.84-3.824 24.928 11.472 47.792 17.328 67.84 17.328 61.024 0 81.008-53.952 87.040-99.2 2.4-17.936 13.872-24.544 23.056-29.84 58.224-33.568 85.648-93.072 69.936-151.504zM976.288 952.944h-117.472c-26.32 0-47.776-21.328-47.776-47.6v-117.024c0-26.208 21.472-47.6 47.776-47.6h117.472c26.32 0 47.712 21.392 47.712 47.6v117.024c0 26.272-21.408 47.6-47.712 47.6zM997.968 788.32c0-11.888-9.728-21.648-21.68-21.648h-117.472c-11.952 0-21.68 9.744-21.68 21.648v117.024c0 11.952 9.728 21.648 21.68 21.648h117.472c11.952 0 21.68-9.68 21.68-21.648v-117.024zM212.96 479.424v117.072c0 26.208-21.456 47.552-47.776 47.552h-117.456c-26.336 0-47.728-21.344-47.728-47.552v-117.072c0-26.208 21.392-47.552 47.728-47.552h117.456c26.32 0 47.776 21.344 47.776 47.552zM26.016 479.424v117.072c0 11.904 9.728 21.584 21.696 21.584h117.456c12.016 0 21.696-9.664 21.696-21.584v-117.072c0-11.904-9.68-21.648-21.696-21.648h-117.44c-11.968 0-21.712 9.744-21.712 21.648zM735.376 155.28h-117.44c-26.336 0-47.728-21.392-47.728-47.6v-117.024c0-26.272 21.392-47.6 47.728-47.6h117.44c26.336 0 47.712 21.328 47.712 47.6v117.024c0 26.208-21.376 47.6-47.712 47.6zM757.088-9.344c0-11.952-9.744-21.648-21.712-21.648h-117.44c-11.968 0-21.712 9.68-21.712 21.648v117.024c0 11.952 9.744 21.648 21.712 21.648h117.44c11.968 0 21.712-9.68 21.712-21.648v-117.024zM89.088 682.944c0-9.552 7.76-17.312 17.392-17.312 9.552 0 17.328 7.76 17.328 17.312v128.864c0 0.736-0.064 1.536-0.112 2.224-0.064 0.32-3.328 28.736 14.992 48.768 14.416 15.776 38.832 23.312 72.752 22.272 117.28-3.392 556.96 0 561.392 0 9.568 0.112 17.264 7.888 17.184 17.456-0.048 9.488-7.808 17.12-17.376 17.12h-0.128c-4.432 0-443.376-3.328-560.096 0-44.512 1.424-78.24-10.112-99.76-33.968-26.448-29.28-24.304-67.008-23.552-74.784v-127.952zM927.184 651.184v64.816c0 9.488-7.744 17.264-17.376 17.264-9.568 0-17.328-7.776-17.328-17.264v-64.816c0-9.552 7.76-17.264 17.328-17.264 9.632 0 17.376 7.728 17.376 17.264zM927.184 244.752c0 9.552-7.744 17.328-17.376 17.328-9.568 0-17.328-7.776-17.328-17.328v-131.824c0-0.608 0-1.216 0.128-1.904 0-0.192 1.296-17.072-10.544-30.224-11.024-12.384-30.576-18.672-57.952-18.672-9.632 0-17.392-7.776-17.392-17.264 0-9.568 7.76-17.328 17.392-17.328 37.664 0 65.904 10.176 83.856 30.224 20.16 22.432 19.664 49.632 19.216 55.856v131.136zM539.936 62.128l-362.976-0.064c-0.176 0-27.44-1.296-44.688 15.104-10.608 10.048-15.792 25.392-15.408 45.744 1.472 82.992 0 263.072 0 264.88-0.064 9.488-7.84 17.136-17.392 17.136h-0.144c-9.552-0.064-17.264-7.888-17.2-17.392 0-1.84 1.488-181.456 0-264.016-0.56-30.384 8.272-54.432 26.208-71.392 23.744-22.576 56.112-24.672 67.152-24.672l3.072 0.064h361.376c9.616 0 17.376 7.76 17.376 17.328 0 9.488-7.76 17.28-17.376 17.28z" />
<glyph unicode="&#xe90e;" glyph-name="kernel" d="M262.768 27.44v0.096c-21.008-20.912-21.008-54.976 0-76 20.912-20.928 54.976-20.928 75.904 0l61.344 61.36-75.904 75.904-61.344-61.36zM946.832 560l61.36 61.344c21.008 21.008 21.008 55.088 0 76.096-20.928 20.912-54.88 20.816-75.904-0.112l-61.344-61.344 75.888-75.984zM823.424 683.504l61.36 61.344c20.912 21.008 20.912 55.072 0 76.096-21.008 20.912-55.072 20.912-76 0l-61.36-61.344 76-76.096zM200.528 212.48l-61.36-61.344c-20.912-21.008-20.912-54.976 0-76 21.008-21.008 54.992-21.008 76 0l61.344 61.344-75.984 76zM761.184 868.448c21.008 21.008 21.008 55.072 0 76-20.928 21.008-54.896 20.912-75.904-0.112l-61.36-61.344 75.904-75.904 61.36 61.36zM77.024 336l-61.264-61.36c-21.008-21.008-21.008-54.992 0-76 20.928-21.008 54.992-21.008 75.904 0l61.36 61.36-76 76zM77.024 560l75.888 76-61.264 61.344c-21.008 20.928-54.976 21.024-75.904 0.112-21.008-21.008-21.008-55.088 0-76l61.28-61.456zM699.824 88.896l-75.904-75.904 61.36-61.344c21.008-21.024 54.992-21.024 76 0 21.008 21.008 20.912 54.992-0.096 75.888l-61.36 61.36zM200.528 683.504l76 76-61.344 61.456c-21.008 20.912-54.992 20.912-76 0-20.912-21.008-20.912-55.072 0-76.096l61.344-61.36zM823.424 212.48l-76-76 61.36-61.344c20.928-21.008 54.992-21.008 76 0 20.912 21.024 20.912 54.992 0 76l-61.36 61.344zM324.016 806.992l75.904 76-61.248 61.344c-21.024 21.024-55.088 21.024-76 0-21.008-20.912-21.008-54.976 0-76l61.344-61.344zM1008.192 274.64l-61.36 61.36-75.888-75.904 61.344-61.36c21.024-21.008 54.992-21.008 76.016 0 20.992 20.928 20.896 54.896-0.112 75.904zM946.336 487.584l-394.816 394.912c-21.808 21.824-57.28 21.824-79.088 0l-394.816-394.912c-21.808-21.808-21.808-57.264 0-79.168l394.816-394.832c21.808-21.888 57.28-21.888 79.088 0l394.816 394.832c21.808 21.904 21.808 57.344 0 79.168z" />
<glyph unicode="&#xe90f;" glyph-name="linkedin" d="M539.12 483.632v1.152c-0.24-0.368-0.48-0.752-0.72-1.152h0.72zM311.648 101.552h-154.528v464.848h154.528v-464.848zM234.4 629.872h-1.024c-51.856 0-85.36 35.712-85.36 80.336 0 45.6 34.576 80.304 87.392 80.304 52.848 0 85.376-34.704 86.432-80.304 0-44.624-33.584-80.336-87.44-80.336zM868.8 101.552h-154.496v248.72c0 62.464-22.352 105.088-78.272 105.088-42.688 0-68.080-28.736-79.28-56.528-4.080-9.92-5.088-23.776-5.088-37.664v-259.632h-154.512c0 0 2.016 421.28 0 464.848h154.512v-65.808c20.544 31.648 57.248 76.768 139.264 76.768 101.664 0 177.872-66.464 177.872-209.296v-266.496z" />
<glyph unicode="&#xe910;" glyph-name="linux" d="M922.144 124.688c-26.752 11.184-48.928 28.592-47.264 62.144 1.552 33.456-23.728 55.648-23.728 55.648s22.080 73.216 1.552 133.712c-20.496 60.464-88.304 157.536-140.416 230.768-51.936 73.232-7.776 157.648-55.136 265.792-47.392 108.24-170.4 101.808-236.64 55.712-66.32-46.096-45.808-160.656-42.688-214.912 3.12-54.080 1.456-92.592-4.672-106.592-6.224-14-48.912-65.248-77.312-108.24s-48.928-132.048-69.536-168.704c-20.512-36.576-6.32-69.936-6.32-69.936s-14.192-4.768-25.184-28.784c-11.088-23.728-33.168-34.912-72.544-42.8-39.488-7.984-39.488-33.552-30.048-62.144 9.536-28.688 0.096-44.656-10.992-81.216-11.088-36.464 44.144-47.744 97.728-53.968 53.68-6.4 113.68-41.408 164.16-47.744 50.464-6.4 66.224 34.944 66.224 34.944s56.784 12.816 116.688 14.288c60 1.664 116.704-12.656 116.704-12.656s11.088-25.472 31.6-36.56c20.528-11.184 64.688-12.816 93.072 17.408 28.384 30.256 104.16 68.368 146.752 92.32 42.72 23.952 34.848 60.544 8 71.52zM552.976 826.544c27.040 0 48.928-27.040 48.928-60.384 0-23.728-11.008-44.16-27.024-54.080l-12.848 5.648c9.632 4.768 16.432 17.12 16.432 31.616 0 18.768-11.584 34.032-25.776 34.032-14.096 0-25.664-15.264-25.664-34.032 0-7.008 1.664-13.616 4.48-19.152-8.464 3.408-16.144 6.512-22.272 8.848-3.312 8.176-5.152 17.328-5.152 27.136-0.032 33.328 21.856 60.368 48.896 60.368zM549.472 699.152c13.52-4.672 28.592-13.616 26.944-22.368-1.552-8.848-8.656-8.848-26.944-20.128-18.368-11.184-58.048-35.984-70.8-37.632-12.736-1.664-19.84 5.536-33.36 14.384s-38.992 29.76-32.576 40.944c0 0 19.84 15.264 28.496 23.248 8.752 8.064 31.008 27.232 44.64 24.8 13.52-2.352 50.080-18.384 63.6-23.248zM427.52 817.008c21.296 0 38.704-25.664 38.704-57.28 0-5.84-0.592-11.184-1.664-16.336-5.248-1.856-10.496-4.672-15.664-9.040-2.528-2.144-4.864-4.176-7.104-6.224 3.408 6.416 4.768 15.456 3.216 25.088-2.816 17.216-14.304 29.856-25.568 28.112-11.296-2.048-18.096-17.504-15.168-34.912 2.912-17.312 14.192-29.952 25.472-28l1.952 0.48c-5.552-5.344-10.608-9.92-15.76-13.808-15.552 7.296-27.024 28.992-27.024 54.752 0 31.6 17.312 57.168 38.608 57.168zM385.904 12.848c-5.056-22.848-31.504-39.376-31.504-39.376-24.016-7.68-90.832 21.568-121.072 34.32-30.144 12.656-107.168 16.624-117.184 27.936-10.016 11.568 4.96 36.944 8.848 61.056 3.696 24.224-7.584 39.376-3.792 56.016 3.792 16.416 52.912 16.416 71.776 27.792 18.96 11.6 22.752 44.656 37.824 53.504 15.168 8.944 42.896-22.848 54.272-40.752 11.28-17.696 54.176-94.032 71.776-113.088 17.664-19.072 34.016-44.656 29.056-67.408zM664.912 234.592c-4.576-22.368-4.576-103.504-4.576-103.504s-48.912-68.336-124.672-79.536c-75.744-11.184-113.68-3.12-113.68-3.12l-42.496 49.216c0 0 33.072 4.88 28.4 38.32-4.768 33.36-100.944 79.568-118.352 120.992-17.312 41.328-3.104 111.456 18.976 146.448 22.080 35.008 36.176 111.36 58.352 136.832 22.080 25.376 39.376 79.552 31.504 103.472 0 0 47.264-57.376 80.336-47.856 33.168 9.536 107.36 65.264 118.352 55.632 10.976-9.536 105.696-219.584 115.136-286.4s-6.416-117.664-6.416-117.664-36.208 9.536-40.864-12.832zM906.976 84.624c-14.688-13.632-96.672-46.976-121.28-73.024-24.512-25.872-56.4-46.88-75.952-40.752-19.648 6.224-36.768 33.344-28.208 73.024 8.56 39.472 15.952 82.768 14.688 107.456-1.152 24.816-6.128 58.272 0 63.12s15.952 2.416 15.952 2.416-4.864-46.88 23.232-59.312c28.208-12.256 68.656 4.864 80.928 17.408 12.352 12.256 20.912 30.72 20.912 30.72s12.256-6.224 11.008-25.968c-1.184-19.712 8.544-48.224 27.024-58.032 18.272-9.744 46.464-23.424 31.696-37.056z" />
<glyph unicode="&#xe911;" glyph-name="minus" d="M957.312 381.296h-890.592c-36.928 0-66.72 29.824-66.72 66.688 0 36.928 29.792 66.72 66.72 66.72h890.592c36.896 0 66.688-29.792 66.688-66.72 0-36.864-29.792-66.688-66.688-66.688z" />
<glyph unicode="&#xe912;" glyph-name="mobileapps" d="M862.080 960h-700.16c-36.832 0-66.704-30.256-66.704-67.52v-851.952c0-37.184 29.872-67.456 66.704-67.456h385.504c8.192 0 14.816 6.688 14.816 14.944 0 8.336-6.624 15.008-14.816 15.008h-385.504c-20.432 0-37.072 16.832-37.072 37.52v851.936c0 20.688 16.64 37.504 37.072 37.504h700.16c20.432 0 37.056-16.816 37.056-37.504v-851.952c0-20.688-16.624-37.52-37.056-37.52h-69.344c-8.192 0-14.816-6.672-14.816-15.008 0-8.256 6.624-14.944 14.816-14.944h69.344c36.752 0 66.704 30.272 66.704 67.456v851.968c0 37.264-29.952 67.52-66.704 67.52zM629.568 382.256c-7.568 28.336-34.192 77.472-82.384 64.784-47.584-12.496-53.008-59.264-49.136-82.848l85.392-416.256c1.488-7.056 7.616-11.936 14.496-11.936 1.008 0 2 0.128 3.056 0.32 8 1.68 13.12 9.632 11.504 17.744l-85.344 415.568c-0.624 4.080-5.12 39.824 27.456 48.4 32.128 8.368 45.888-41.904 46.448-44.032l0.368-1.184 144.656-412.688c2.768-7.808 11.2-11.872 18.96-9.12 7.68 2.752 11.744 11.312 9.008 19.12l-144.48 412.128zM664.272 342.256c7.568-3.248 16.256 0.368 19.44 7.936 7.392 17.68 11.136 36.448 11.136 55.776 0 78.88-63.472 143.088-141.488 143.088-78.032 0-141.488-64.208-141.488-143.088 0-47.664 23.312-92.032 62.336-118.736 2.56-1.744 5.44-2.56 8.32-2.56 4.752 0 9.44 2.304 12.336 6.624 4.56 6.832 2.816 16.208-4 20.832-30.896 21.12-49.328 56.192-49.328 93.84 0 62.384 50.192 113.088 111.84 113.088s111.776-50.704 111.776-113.088c0-15.328-2.944-30.144-8.752-44.096-3.2-7.616 0.304-16.368 7.872-19.616zM711.152 255.904c37.824 40.768 58.704 94.032 58.704 150.064 0 120.768-97.152 219.056-216.496 219.056-119.424 0-216.512-98.288-216.512-219.056 0-96.336 63.664-182.688 154.816-210.080 1.44-0.432 2.88-0.624 4.256-0.624 6.368 0 12.256 4.272 14.192 10.768 2.32 7.936-2.128 16.256-10 18.624-78.656 23.632-133.616 98.16-133.616 181.312 0 104.208 83.84 189.040 186.88 189.040s186.864-84.832 186.864-189.040c0-48.336-18-94.288-50.688-129.504-5.648-6.064-5.328-15.568 0.608-21.184 6-5.68 15.376-5.376 20.992 0.624zM865.76 838.016c0 8.32-6.64 15.008-14.832 15.008h-687.136c-8.128 0-14.816-6.688-14.816-15.008 0-8.256 6.688-15.008 14.816-15.008h687.136c8.192 0.016 14.832 6.768 14.832 15.008zM163.792 86.176h343.616c8.192 0 14.816 6.768 14.816 15.008 0 8.32-6.624 15.008-14.816 15.008h-343.616c-8.128 0-14.816-6.688-14.816-15.008 0.016-8.24 6.688-15.008 14.816-15.008zM463.456 33.472h58.768c8.192 0 14.816 6.752 14.816 15.008s-6.624 15.008-14.816 15.008h-58.768c-8.192 0-14.88-6.752-14.88-15.008s6.688-15.008 14.88-15.008z" />
<glyph unicode="&#xe913;" glyph-name="password" d="M880-64h-736c-26.512 0-48 21.488-48 48v416c0 26.512 21.488 48 48 48h80v224c0 159.040 128.944 288 288 288s288-128.96 288-288v-224h80c26.512 0 48-21.488 48-48v-416c0-26.512-21.488-48-48-48zM464 173.312v-93.312c0-26.512 21.488-48 48-48s48 21.488 48 48v93.312c28.576 16.64 48 47.248 48 82.688 0 53.008-42.976 96-96 96s-96-42.992-96-96c0-35.44 19.424-66.048 48-82.688zM704 672c0 106.032-85.968 192-192 192-106.048 0-192-85.968-192-192v-224h384v224z" />
<glyph unicode="&#xe914;" glyph-name="phone" d="M433.568 369.2c101.28-101.264 218.448-198.272 264.8-151.6 66.528 66.208 107.584 124.128 253.856 6.624 146.304-117.808 34.080-196.272-30.432-260.816-74.16-74.144-350.832-3.968-624.592 269.76-273.424 273.728-343.888 550.416-269.424 624.88 64.192 64.224 142.64 176.768 260.448 30.48 117.536-146.656 59.936-187.696-6.592-253.888-46.336-46.64 50.304-163.808 151.936-265.44z" />
<glyph unicode="&#xe915;" glyph-name="photos" d="M976 128h-160v240h112v496h-576v-48h-96v96c0 26.512 21.488 48 48 48h672c26.512 0 48-21.488 48-48v-736c0-26.512-21.488-48-48-48zM768 720v-736c0-26.512-21.488-48-48-48h-672c-26.512 0-48 21.488-48 48v736c0 26.512 21.488 48 48 48h672c26.512 0 48-21.488 48-48zM672 672h-576v-496h576v496z" />
<glyph unicode="&#xe916;" glyph-name="pinterest" d="M531.936 872.848c-231.888 0-348.832-166.24-348.832-304.88 0-83.952 31.792-158.624 99.952-186.448 11.184-4.576 21.2-0.176 24.432 12.208 2.272 8.56 7.6 30.16 9.984 39.2 3.248 12.192 2 16.496-7.008 27.168-19.664 23.168-32.24 53.2-32.24 95.728 0 123.312 92.304 233.712 240.304 233.712 131.072 0 203.072-80.064 203.072-187.008 0-140.704-62.272-259.504-154.704-259.504-51.088 0-89.28 42.24-77.056 94.032 14.672 61.808 43.088 128.544 43.088 173.184 0 39.936-21.44 73.28-65.824 73.28-52.176 0-94.112-54-94.112-126.336 0-46.064 15.568-77.232 15.568-77.232s-53.408-226.288-62.784-265.952c-18.64-78.944-2.8-175.664-1.456-185.44 0.784-5.808 8.224-7.168 11.6-2.816 4.8 6.272 66.992 83.040 88.096 159.712 5.984 21.728 34.32 134.176 34.32 134.176 16.976-32.368 66.56-60.848 119.264-60.848 156.88 0 263.312 143.008 263.312 334.464-0.016 144.752-122.624 279.6-308.976 279.6z" />
<glyph unicode="&#xe917;" glyph-name="play" d="M873.168 486.496l-658.304 396.576c-48.096 30.528-87.248 7.984-87.248-50.112v-769.952c0-58.048 39.152-80.608 87.248-50.096l658.32 396.816c0 0 23.216 15.92 23.216 38.256-0.016 22.336-23.232 38.512-23.232 38.512z" />
<glyph unicode="&#xe918;" glyph-name="plus" d="M957.376 381.344h-378.608v-378.72c0-36.672-29.904-66.608-66.72-66.608s-66.704 29.936-66.704 66.608v378.72h-378.624c-36.816 0-66.72 29.888-66.72 66.624 0 36.928 29.904 66.72 66.72 66.72h378.592v378.576c0 36.816 29.888 66.72 66.704 66.72s66.736-29.904 66.736-66.72v-378.576h378.624c36.816 0 66.624-29.792 66.624-66.72 0-36.736-29.808-66.624-66.624-66.624z" />
<glyph unicode="&#xe919;" glyph-name="quote" d="M1024 384.672v-376.8c-0.896-1.552-1.984-3.088-2.656-4.752-7.616-18.192-21.616-27.568-41.248-27.568-117.76-0.128-235.424-0.128-353.184 0.112-5.856 0-12.032 1.216-17.44 3.408-19.072 8.064-26.256 23.168-26.256 43.456 0.24 116.56 0.128 233.232 0.128 349.792 0 62.976 4.864 125.376 16.88 187.152 15.216 77.84 41.776 150.96 89.088 215.68 27.008 36.96 59.76 67.696 98.576 92.304 58.784 37.28 123.728 52.176 192.656 52.944 18.848 0.224 33.52-10.032 40.576-27.232l2.88-6.736v-185.040c-4.528-7.6-8.288-15.872-13.904-22.48-8.832-10.272-21.712-10.928-34.4-11.68-20.064-1.104-38.256-7.616-54.016-20.304-26.048-20.96-39.696-49.632-49.52-80.384-14.56-45.44-19.2-92.4-21.84-139.728-0.432-7.936 1.872-10.144 9.808-10.032 39.136 0.432 78.4 0.128 117.552 0.224 13.344 0 25.696-2.864 34.624-13.344 4.736-5.648 7.84-12.592 11.696-18.992zM0 7.872v406.032c0.416 2.64 0.992 5.28 1.088 7.936 2.544 47.088 7.392 93.84 16.544 140.048 15.216 76.752 41.568 148.864 88.224 212.608 33.968 46.64 76.4 83.6 128.128 109.504 49.728 24.928 103.232 34.624 158.576 36.72 23.6 0.896 49.52-14.88 48.304-46.768-1.008-29.008-0.112-57.888-0.224-86.896 0-27.568 0-55.136-0.544-82.832-0.24-10.8-5.952-19.296-13.888-26.448-9.808-9.024-21.952-9.808-34.304-10.576-20.080-1.328-38.272-7.712-54.16-20.304-23.472-18.512-36.944-43.568-46.976-70.8-17.648-48.4-22.16-99.024-25.696-149.872-0.544-7.84 2.224-9.488 9.616-9.488 40.256 0.336 80.592 0.336 120.96 0.128 28.032-0.128 44.896-16.784 45.008-44.448 0.112-117.44 0.112-234.88-0.112-352.336 0-6.608-0.88-13.776-3.648-19.632-8.16-17.536-22.944-25.040-42.128-25.040-113.68 0.128-227.376 0.448-340.976-0.208-25.472-0.112-44.112 7.28-53.024 32.304-0.112 0.144-0.544 0.256-0.768 0.368z" />
<glyph unicode="&#xe91a;" glyph-name="raspberry" d="M821.392 502.112c-2.144 1.472-3.696 3.696-5.248 5.744-3.408 4.48-3.808 9.728-4 15.168-0.384 8.272-1.152 16.528-2.608 24.704-7.696 43.376-29.856 78.288-64.976 105.328-2.736 2.048-5.552 3.888-8.464 5.936 4.672 1.744 8.752 3.216 12.848 4.864 6.128 2.528 11.76 6.32 14.48 12.16 3.008 6.512 8.176 9.536 14.304 12.352 9.328 4.288 18.576 10.016 21.2 20.032 2.336 8.656 8.272 12.832 14.384 17.616 2.24 1.744 4.368 3.6 6.4 5.632 5.552 5.344 9.152 11.968 9.552 19.552 0.192 4.368 1.936 7.088 4.864 9.824 8.448 7.68 13.424 17.024 12.336 28.4-0.288 3.792 0.592 6.416 2.928 9.152 8.272 9.328 12.256 19.936 9.44 32.48-0.384 1.568 0.48 3.696 1.36 5.264 7.184 12.448 8.848 24.992 1.264 38.016-0.688 1.072-0.384 2.912-0.208 4.368 0.784 3.888 2.432 7.776 2.64 11.664 1.152 20.128-16.336 36.56-36.768 34.72-3.488-0.4-5.84 0.192-8.272 2.912-4.96 5.744-11.664 9.040-19.136 10.112-7.296 1.072-14.688 1.36-21.984 2.144-1.952 0.192-4.192 0.784-5.648 1.84-6.816 5.056-14.304 7.984-22.752 7.6-6.032-0.304-11.584 0.192-16.336 4.368-1.168 0.976-2.912 1.36-4.464 2.032-9.824 3.792-19.664 1.744-29.264-0.784-3.12-0.768-5.664-0.096-8.576 0.784-5.648 1.744-11.76 3.792-17.504 3.312-7.296-0.784-14.304-4-21.504-6.032-1.552-0.384-3.392-1.168-4.672-0.784-11.856 4-22.752 1.36-32.96-4.672-3.008-1.76-5.648-1.76-8.848-1.36-4 0.48-8.192 0.48-12.16-0.096-11.184-1.744-18.784-9.536-26.96-16.336-1.36-1.168-3.504-2.24-5.344-2.336-9.136-0.096-17.008-3.12-23.824-9.152-13.136-11.568-24.224-24.8-32.976-39.872-4.672-7.984-8.752-16.336-13.024-24.512-0.192 0.096-0.384 0.096-0.384 0.192l-2.528 5.28c-10.208 22.464-24.112 42.304-42.896 58.832-4.96 4.368-10.496 8.352-17.024 8.272-8.848-0.096-14.384 4.672-20.128 9.824l-2.144 1.76c-9.136 7.296-19.344 10.496-31.216 7.968-1.744-0.384-4.176 0.304-5.84 1.168-8.56 4.864-17.696 8.752-27.52 6.32-6.608-1.568-11.968-0.672-17.6 2.144-1.168 0.592-2.528 0.976-3.792 1.456-8.656 2.928-17.696 3.888-26.048-0.192-5.264-2.528-9.824-2.432-14.992-1.072l-1.744 0.48c-11.184 2.528-21.792 2.032-31.696-4.576-2.24-1.456-5.456-2.336-8.176-2.24-9.824 0.192-18.864-1.456-26.944-7.392-1.744-1.36-4.464-2.144-6.8-2.144-10.8-0.288-21.6-0.48-31.312-5.632-4.672-2.528-7.984-7.68-12.736-9.44-4.88-1.744-10.912 0.016-16.064-1.264-19.84-4.768-30.336-25.376-23.152-44.336 0.592-1.664 0.88-4.192 0.096-5.552-6.224-11.376-6.512-22.752-0.48-34.032 2.528-4.576 4.288-8.848 2.624-14.096-0.672-2.032-0.192-4.368 0-6.624 0.784-8.656 5.552-15.456 10.896-22.080 1.168-1.456 2.24-3.68 2.032-5.44-1.36-12.736 3.6-22.96 12.944-31.312 2.72-2.432 4.080-5.056 4.288-8.752 0.48-8.464 4.464-15.664 10.784-21.296 4.192-3.696 8.752-6.8 12.944-10.496 1.84-1.664 3.696-3.792 4.368-6.128 2.528-8.672 7.2-15.664 14.88-20.528 5.056-3.104 10.592-5.648 15.856-8.464 1.264-0.672 2.912-1.456 3.408-2.624 4.176-9.728 11.472-16.144 21.488-19.84-7.68-5.936-15.568-11.184-22.368-17.312-39.104-35.104-58.256-78.672-57.872-130.704 0.096-6.8-3.312-13.12-8.848-17.216-52.816-38.432-77.408-101.936-63.696-165.056 5.536-25.68 17.216-48.528 34.032-68.96 2.032-2.528 3.408-5.84 4.368-8.96 2.528-8.064 4.576-16.24 6.912-24.32 5.936-20.032 13.904-39.184 19.264-59.536 14.496-56.192 49.984-95.872 104.16-119.12 1.664-0.784 3.312-1.664 4.672-2.72 29.568-22.56 61.76-40.272 96.768-53.392 1.76-0.592 3.6-1.568 4.864-2.928 17.904-18.976 38.896-33.552 63.408-43.28 38.128-15.056 77.12-17.008 116.512-5.552 32 9.36 59.024 26.656 81.312 51.056 1.552 1.76 3.6 3.216 5.744 4.096 29.36 11.664 56.688 27.040 82.176 45.408 1.648 1.184 3.6 2.16 5.536 2.832 17.024 5.552 33.072 13.024 47.664 23.344 47.056 33.152 72.336 78.192 76.24 134.992 0.368 4.96 0.368 10.128 1.568 14.992 2.144 8.544 5.648 16.816 7.488 25.568 2.624 12.448 8.176 23.040 15.552 33.744 29.968 43.584 37.152 91.024 20.736 141.52-11.12 33.76-32.048 60.416-61.104 81.216zM769.744 540.24c1.152-7.008 1.664-14.096 2.432-21.104l-0.592-0.096v-6.224c-0.192-8.176-3.296-10.4-10.992-7.2-7.088 2.912-14.304 5.84-20.624 9.92-14.48 9.136-29.168 17.792-42.016 29.28-12.256 10.896-26.256 19.936-38.224 31.12-16.416 15.568-31.904 32.288-47.36 48.816-3.216 3.6-4.672 8.752-6.512 13.424-1.264 3.008 0.672 4.576 3.6 5.264 13.52 2.912 27.136 4.368 40.96 3.392 28-2.032 53.088-11.76 74.592-29.568 24.416-20.224 39.472-46 44.736-77.024zM515.248 817.904c6.784 27.808 19.936 52.32 40.736 72.656 0.88 0.784 1.744 1.552 2.72 2.336 0.304 0.304 0.688 0.384 0.88 0.496l5.552-14.784c11.008 12.448 20.224 24.992 33.664 34.816-0.208-2.624-0.784-4.576-0.592-6.32 0.48-3.008 0.784-6.224 2.336-8.752 2.24-3.792 3.888-3.312 7.184-0.192 7.296 7.008 14.88 13.616 22.464 20.32 0.784 0.784 2.048 1.072 4.080 2.048-3.872-5.552-3.296-10.112-0.784-14.976 1.664-3.008 3.216-2.72 5.664-0.88 6.224 4.864 12.432 9.824 19.040 14.192 4.576 2.928 9.824 4.96 14.784 7.296l0.784-0.976c-1.152-1.168-2.624-2.336-3.2-3.696-1.36-2.816-2.912-5.728-3.008-8.56-0.096-4.672 2.72-5.84 6.816-3.408 10.992 6.704 22.752 11.376 35.408 14 1.344 0.288 2.624 0.384 4.352-0.096-1.056-0.768-2.24-1.552-3.2-2.528-2.048-1.936-4.368-3.888-5.648-6.224-1.056-2.032-0.784-4.768-1.056-7.2 2.24 0.096 4.56-0.192 6.704 0.384 11.568 2.624 23.040 5.536 34.624 8.272 0.688 0.192 1.456 0 3.216 0-1.568-1.072-2.528-1.568-3.216-2.336-2.048-2.336-4.288-4.576-5.648-7.2-0.784-1.552-0.384-4.384 0.688-5.648 0.784-0.88 3.68-0.672 5.328-0.096 14.016 4.080 28.032 7.488 42.704 5.344 1.056-0.096 2.144-0.288 3.104-0.496 0.576-0.096 1.056-0.48 1.36-0.576l-12.256-12.16c16.736-2.72 32.368-2.336 48.72-1.264-8.944-10.896-14.88-22.96-18.672-37.152l21.104 1.168c-3.888-8.368-10.592-14.496-17.504-20.528-2.736-2.336-5.824-4.272-8.464-6.704-1.664-1.52-2.816-3.68-4.464-6 8.352-3.408 15.664-2.336 23.808 0.288-9.616-13.232-21.488-22.96-33.152-33.36 6.032-4.768 12.64-3.104 19.936-2.528-11.28-12.16-24.496-20.624-37.92-29.184 5.936-3.888 8.752-4.384 20.32-3.408-13.792-12.352-30.048-19.648-46.464-27.328 5.344-5.744 11.76-5.456 19.264-6.032-15.488-9.328-32.112-12.352-48.432-17.6 3.2-6.224 9.12-7.2 14.576-8.944l0.192-1.168c-7.28-1.648-14.384-3.792-21.776-4.96-7.584-1.072-15.376-1.168-22.96-1.952-2.608-0.192-5.248-1.168-8.16-1.856 1.552-7.296 7.872-8.848 13.52-12.048-13.328-2.032-25.664-1.264-38.032 0.592-18.096 2.72-35.776 7.008-52.416 14.88-17.888 8.368-29.168 22.368-35.088 40.752-1.184 3.792 1.248 5.552 3.184 7.584 14.8 15.76 31.216 29.664 48.544 42.704 40.064 29.952 82.544 56.112 127.504 78.48 0.688 0.288 1.248 0.784 1.936 1.168l-0.816 1.36c-21.008-8.256-42.112-16.144-62.816-24.8-42.016-17.792-81.888-39.184-118.56-66.128-5.648-4.192-11.168-8.656-16.528-13.136-2.048-1.744-3.616-1.84-6.032-0.672-25.856 13.024-36.672 35.008-29.936 62.72zM575.824 632.928c8.16-7.584 15.36-15.952 16.912-27.616 0.992-6.704-0.096-12.848-3.68-18.672-6.704-10.704-16.048-17.904-27.424-23.632-20.72-10.512-42.784-13.52-65.456-14.88-3.312-0.096-6.608 0-9.92 0-21.488-0.384-42.112 3.888-61.664 12.256-8.944 3.792-17.408 8.848-25.664 13.92-8.656 5.248-13.904 13.808-16.72 22.944-4.080 13.024 1.072 24.224 10.512 33.552 22.752 22.368 50.176 35.504 82.56 37.936 38.88 2.896 72.336-9.744 100.544-35.808zM214.816 720.736c4.080 0.48 7.296 0.48 10.304 1.36 2.912 0.784 5.648 2.336 8.464 4.288-16.24 8.064-32.288 15.664-46.592 28.112 7.584-0.976 14.096-1.456 20.624 2.912-6.8 4.672-13.424 8.96-19.744 13.616-6.128 4.672-11.968 9.824-17.6 15.28 6.624 0.096 13.232-1.744 19.36 3.104-11.488 10.512-23.44 19.936-32.592 32.672 15.36-2.24 16.64-2.24 23.152 0.592-1.664 2.128-2.912 4.368-4.672 6.128-7.008 6.704-14.304 13.136-21.2 19.936-1.952 1.84-3.12 4.464-4.768 7.088l21.584-1.344c-3.888 13.904-9.536 25.968-18.864 37.152 16.432-0.976 32.096-1.36 48.72 1.36l-13.328 12.448c5.056 0.592 9.040 1.36 13.136 1.456 11.856 0.192 23.344-2.528 34.624-5.936 1.936-0.592 5.632-0.784 6.128 0.192 0.976 1.648 1.072 4.864 0 6.512-1.744 3.104-4.576 5.552-7.776 9.040 6.416-1.072 12.448-1.76 18.288-3.216 6.704-1.76 13.136-4.192 19.856-6.128 1.744-0.496 4.56-0.88 5.344 0.096 0.976 1.072 1.072 3.984 0.192 5.344-2.624 3.888-5.936 7.488-9.248 11.376 3.408-0.672 7.392-1.072 10.896-2.432 9.728-4 19.36-8.272 28.896-12.544 3.6-1.744 5.44-1.456 6.016 2.432 0.496 2.432-0.192 5.264-1.264 7.584-0.88 2.24-2.928 4-4.176 6.704 2.816-1.168 6.016-1.952 8.56-3.6 8.352-5.44 16.72-11.088 24.8-16.928 4.288-3.104 4.864-3.216 7.104 1.568 2.144 4.368 1.952 7.68-0.192 13.408 4.288-2.912 8.848-5.648 12.736-9.040 4.672-4.176 8.944-8.848 12.944-13.616 2.72-3.408 4.96-2.528 6.608 0.192 1.456 2.432 2.144 5.44 2.624 8.272 0.304 2.144-0.384 4.368-0.768 7.296 13.328-9.632 22.656-22.272 33.648-34.816l6.128 15.36c5.536-6.224 11.472-11.968 16.432-18.48 14.192-18.48 23.728-39.2 28.4-61.856 5.152-25.184-7.984-49.12-32.096-58.848-1.168-0.48-3.504 0.096-4.576 0.976-20.224 16.832-42.096 31.328-64.96 44.352-42.016 23.936-86.064 43.376-132.176 58.448-0.384 0.096-0.768 0.096-1.456-0.304l8.656-4.464c3.104-1.664 6.224-3.12 9.248-4.768 48.432-25.968 94.832-55.040 136.544-90.848 8.464-7.296 16.144-15.568 24.32-23.136 2.624-2.528 2.72-4.864 1.664-7.984-6.336-18.768-18.48-32.48-36.96-40.368-24.512-10.4-50.080-15.952-76.928-15.456-3.408 0-6.816 0.592-11.184 0.88 5.44 3.504 11.872 4.864 13.424 12.352-3.216 0.592-6.224 1.664-9.248 1.744-14.784 0.784-29.472 2.048-44.352 7.68 6.032 2.144 12.064 2.912 15.456 9.232-16.080 5.504-32.8 8.336-48.16 17.568zM243.984 617.856c23.936 19.936 52.128 29.072 88.32 29.664 5.44-0.768 15.664-2.24 25.872-3.984 4.576-0.768 5.552-3.104 3.792-7.392-6.128-14.592-16.832-25.968-27.92-36.768-21.296-20.816-43.76-40.352-68.176-57.568-13.632-9.728-28.016-18.48-42.32-27.232-5.056-3.104-10.992-4.96-16.64-6.912-6.624-2.24-10.016 0.192-10.208 6.912-0.672 41.616 14.896 76.336 47.28 103.28zM154.016 282.896c-24.016 26.176-35.888 56.8-33.168 92.304 3.12 40.56 22.864 71.584 56.896 94.256 12.64 8.352 17.888 4.176 24.208-9.824 6.128-13.616 5.936-28.608 6.416-43.296 0.096-2.336 0-4.672 0-7.088 0.192-17.312-1.264-34.64-5.344-51.552-2.912-12.16-5.936-24.416-9.424-36.464-1.856-6.512-4.080-13.040-7.296-18.976-3.6-6.704-7.584-13.712-13.024-18.976-7.392-7.392-12.832-7.488-19.264-0.384zM351.456 100.176c-6.128-11.968-15.76-21.312-30.928-22.368-15.664-0.976-30.64 2.144-45.232 7.184-25.008 8.864-46 23.344-62.544 43.856-17.008 21.2-27.136 45.232-29.28 72.352l-0.976 12.544c0.384 13.216 1.456 24.688 5.744 35.68 5.152 13.12 20.128 23.152 36.368 22.768 22.656-0.592 41.328-9.728 58.448-22.96 20.528-15.952 37.648-34.816 50.96-57.088 10.8-17.888 18.288-36.96 21.296-57.584 1.696-11.552 1.488-23.792-3.856-34.384zM309.44 310.128c-30.352 9.44-50.768 29.072-61.568 58.16-6.512 17.696-7.984 36.176-4.96 54.752 7.392 45.424 31.52 79.76 72.464 102.336 16.432 9.040 34.336 13.616 56.608 13.616 34.72 0.304 68.368-21.488 83.44-55.712 9.328-21.2 10.608-42.896 7.008-65.664-4.48-28.4-18-51.728-37.536-72.352-16.432-17.504-36.272-29.856-59.712-35.968-18.592-4.912-37.264-4.816-55.744 0.832zM599.152 33.056c-13.52-18.768-30.736-33.264-51.648-43.584-24.992-12.256-51.44-16.144-78.768-12.16-35.488 5.248-64.576 22.064-87.040 49.696-7.104 8.64-6.416 18.192 2.72 26.16 15.36 13.52 34.128 20.032 53.888 23.248 19.264 3.184 38.8 4.864 51.536 6.32 36.672-1.456 66.048-4.672 93.664-16.832 7.296-3.2 13.12-8.448 17.12-14.784 3.6-5.712 2.512-12.512-1.472-18.064zM575.344 149.472c-20.144-21.104-45.52-32.288-74.608-35.408-35.408-3.792-67.008 5.552-93.952 28.4-20.032 17.104-31.904 39.184-34.528 65.040-1.84 19.552 1.264 38.528 11.376 56.224 8.272 14.304 18.080 26.848 31.696 36.464 17.904 12.64 37.728 20.24 59.52 23.040 5.152 0.688 10.512 0.88 16.544 1.36 23.728-1.936 47.168-7.008 67.6-21.392 20.912-14.688 36.080-33.456 42.496-57.856 9.456-36.448-0.176-68.656-26.144-95.872zM607.712 316.736c-17.408 5.936-33.056 15.856-46.784 28.8-16.624 15.936-28 34.816-36.464 55.536-3.6 9.040-5.248 19.056-6.704 28.784-2.048 14.592-1.856 29.28 1.936 43.68 5.456 20.528 15.664 38.416 32.784 51.44 14.576 11.088 31.504 17.216 50.176 17.904 29.088 0.88 54.368-8.944 76.832-26.352 26.864-20.72 43.968-47.664 51.568-80.352 2.128-9.12 2.912-18.672 3.68-23.328-0.48-30.432-7.2-53.872-24.608-73.712-11.376-12.832-25.776-20.528-42.112-25.488-20.608-6.352-40.944-3.616-60.304 3.088zM744.56 107.744c-25.584-20.144-55.248-30.16-88.016-29.856-20.928 0.288-34.432 14.208-37.248 34.624-4.672 33.344 5.92 62.816 23.536 90.432 7.776 12.272 16.24 24.32 25.776 35.2 16.144 18.576 34.72 34.928 58.336 43.856 13.216 5.056 27.232 7.488 41.44 1.84 10.4-4.080 16.416-12.048 20.032-21.68 5.824-15.744 9.232-32.080 8.656-49.2-1.36-42.784-18.368-78.384-52.512-105.216zM834.704 311.776c-5.344-9.92-13.424-18.48-20.816-27.232-4.080-4.96-6.896-4.672-12.336-1.152-8.080 5.136-11.76 13.616-15.472 21.392-7.088 14.88-12.432 30.432-14.992 46.784-2.912 19.456-6.016 38.912-8.736 58.336-0.688 4.88-0.096 9.728-0.096 14.688-1.072 14.208 1.056 28.016 4.96 41.632 0.784 2.816 2.048 5.552 3.408 8.176 2.528 4.768 7.872 6.32 13.12 3.6 19.648-10.224 35.872-24.224 47.36-42.912 24.896-40.256 25.776-81.776 3.6-123.312zM879.936 695.168c-36.464 0.384-66.336-28.304-66.528-63.6-0.208-35.696 28.896-64.48 65.36-64.672 35.984-0.192 65.152 28.304 65.456 64 0.272 34.704-28.992 63.984-64.288 64.272zM878.864 577.488c-30.432 0.208-54.848 24.32-54.56 53.776 0.304 29.664 25.008 53.392 55.232 53.2 29.584-0.096 53.888-24.496 53.696-53.584-0.208-29.856-24.416-53.584-54.368-53.392zM900.272 629.328c2.72 3.6 6.416 6.816 7.968 10.8 4.976 13.136-3.984 25.584-18.368 25.872-12.064 0.192-24.128 0.096-36.192 0-0.672 0-1.36-0.192-1.936-0.288v-67.984h14.88v26.464h14.208c9.328 0 12.336-2.816 13.12-11.968 0.48-4.768 1.152-9.632 1.744-14.496h14.784c-0.688 5.552-1.456 10.8-1.936 16.048-0.608 6.8-2.256 12.832-8.272 15.552zM886.64 635.552c-6.336-0.592-12.848-0.192-19.744-0.192v18.864c6.512 0 13.040 0.304 19.36-0.096 5.248-0.384 7.68-3.6 7.776-8.752 0.192-5.936-1.936-9.344-7.392-9.824z" />
<glyph unicode="&#xe91b;" glyph-name="rss" d="M234.672 244.848c0 53.36 42.864 96.224 95.92 96.224 53.2 0 96.064-42.864 96.064-96.224 0-53.184-42.864-96.224-96.064-96.224-53.040 0-95.92 43.040-95.92 96.224zM639.888 202.144c0-29.488-23.84-53.52-53.184-53.52-29.488 0-53.36 24.032-53.36 53.52 0 135.728-109.888 245.936-245.312 245.936-29.488 0-53.36 23.856-53.36 53.504 0 29.488 23.872 53.344 53.36 53.344 194.256 0 351.856-157.936 351.856-352.784zM832.032 202.144c0-29.488-24.016-53.52-53.344-53.52-29.504 0-53.344 24.032-53.344 53.52 0 241.984-195.936 438.352-437.312 438.352-29.488 0-53.36 24.016-53.36 53.52 0 29.472 23.872 53.488 53.36 53.488 158.224 0 288.176-54.864 390.16-157.008 104.432-104.864 153.84-234.832 153.84-388.352zM0 20.352c0-47.28 38.16-85.584 85.264-85.584h853.312c47.264 0 85.424 38.304 85.424 85.584v855.44c0 47.264-38.16 85.424-85.424 85.424h-853.312c-47.104 0-85.264-38.16-85.264-85.424v-855.44z" />
<glyph unicode="&#xe91c;" glyph-name="search" d="M408.272 233.312c-176.816 0-331.648 154.848-331.648 331.472 0 175.584 142.944 318.352 318.688 318.352 176.656 0 331.664-154.832 331.664-331.296 0.016-175.744-142.928-318.528-318.704-318.528zM1007.728 56.688l-244.4 244.224-50.352 2.096 22.336 25.904 10.832 17.936c37.6 61.536 57.264 132.464 57.264 205.008 0 217.088-190.656 407.744-408.080 407.744-217.984-0.016-395.328-177.2-395.328-394.816 0-217.264 190.832-407.92 408.272-407.92 69.872 0 138.688 18.624 198.992 53.744l15.264 8.848 27.472 21.808v-45.184l248.656-248.496c7.088-7.248 16.848-11.184 26.976-11.184 10.288 0 19.84 3.936 27.12 11.184l64.224 64.192c11.872 11.904 8.672 26.976-9.248 44.912z" />
<glyph unicode="&#xe91d;" glyph-name="share" d="M796.448 277.36c-39.088 0-75.008-13.312-103.776-35.424l-296.912 178.112c1.488 9.136 2.464 18.432 2.464 27.952 0 9.552-0.976 18.832-2.464 27.936l296.912 178.144c28.784-22.128 64.688-35.408 103.776-35.408 94.24 0 170.656 76.416 170.656 170.672s-76.416 170.656-170.656 170.656c-94.256 0-170.656-76.416-170.656-170.672 0-9.536 0.976-18.816 2.464-27.936l-296.912-178.144c-28.752 22.128-64.672 35.424-103.776 35.424-94.24 0-170.672-76.432-170.672-170.672 0-94.256 76.448-170.64 170.672-170.64 39.104 0 75.024 13.248 103.776 35.376l296.912-178.144c-1.504-9.088-2.464-18.368-2.464-27.936 0-94.24 76.4-170.656 170.656-170.656 94.24 0 170.656 76.416 170.656 170.656 0 94.256-76.416 170.704-170.656 170.704z" />
<glyph unicode="&#xe91e;" glyph-name="star" d="M1003.92 512.336l-257.856-184.448 99.504-300c1.552-4.688 2.432-9.824 2.432-14.928 0-26.096-21.632-47.52-48.176-47.52-10.448 0-20.064 3.36-28.112 9.152l-259.84 185.792-259.84-185.792c-7.808-5.792-17.632-9.152-28.096-9.152-26.544 0-47.952 21.424-47.952 47.52 0 5.104 0.88 10.256 2.448 14.944l99.248 300-257.824 184.432c-12.048 8.704-19.856 22.752-19.856 38.608 0 26.096 21.408 47.504 47.952 47.504h319.168l98.816 298.672c6.032 19.408 24.32 33.456 45.936 33.456 21.648 0 39.936-14.048 45.952-33.456l98.8-298.672h319.184c26.528 0 48.192-21.408 48.192-47.504 0-15.856-8.032-29.904-20.080-38.608z" />
<glyph unicode="&#xe91f;" glyph-name="twitter" d="M952.432 703.616c-31.392-13.952-65.136-23.344-100.592-27.584 36.176 21.664 63.92 55.984 77.008 96.896-33.84-20.064-71.296-34.656-111.2-42.512-31.952 34.032-77.472 55.312-127.824 55.312-96.72 0-175.136-78.416-175.136-175.136 0-13.712 1.552-27.072 4.528-39.904-145.552 7.296-274.608 77.008-360.976 182.976-15.072-25.856-23.712-55.936-23.712-88.048 0-60.752 30.912-114.352 77.904-145.776-28.688 0.928-55.712 8.8-79.328 21.92-0.016-0.72-0.016-1.456-0.016-2.208 0-84.848 60.368-155.632 140.496-171.712-14.688-4-30.176-6.144-46.144-6.144-11.296 0-22.272 1.072-32.96 3.136 22.304-69.584 86.976-120.224 163.6-121.648-59.936-46.976-135.44-74.96-217.504-74.96-14.128 0-28.064 0.848-41.776 2.432 77.52-49.68 169.568-78.688 268.464-78.688 322.144 0 498.272 266.88 498.272 498.304 0 7.584-0.144 15.152-0.464 22.656 34.192 24.704 63.904 55.552 87.36 90.688z" />
<glyph unicode="&#xe920;" glyph-name="user" d="M512.032 417.568c126.784 0 229.856 121.52 229.856 271.232 0 207.712-102.864 271.2-229.856 271.2s-229.84-63.488-229.84-271.216c0.016-149.696 102.864-271.216 229.84-271.216zM1019.376 18.16l-115.824 263.536c-5.488 11.968-14.592 22.096-26.352 28.16l-179.728 94.336c-4.064 2.256-8.944 1.808-12.368-1.008-50.928-38.752-110.752-59.248-173.040-59.248s-122.128 20.496-173.024 59.248c-3.44 2.816-8.32 3.248-12.384 1.008l-179.76-94.352c-11.76-6.064-21.088-16.192-26.368-28.16l-115.824-263.52c-8.112-18.064-6.288-38.752 4.464-55.568 10.544-16.656 28.8-26.592 48.48-26.592h908.784c19.664 0 37.92 9.936 48.464 26.592 10.784 16.816 12.384 37.504 4.48 55.568z" />
<glyph unicode="&#xe921;" glyph-name="webapps" d="M953.952 894.304h-883.904c-38.656 0-70.048-32.016-70.048-71.408v-749.76c0-39.408 31.392-71.44 70.048-71.44h883.904c38.656 0 70.048 32.032 70.048 71.44v749.76c0 39.392-31.392 71.408-70.048 71.408zM992.848 73.12c0-21.904-17.44-39.664-38.896-39.664h-883.904c-21.456 0-38.96 17.744-38.96 39.664v749.776c0 21.888 17.504 39.648 38.96 39.648h883.904c21.456 0 38.896-17.76 38.896-39.648v-749.776zM967.28 766.288c0 8.752-7.008 15.888-15.584 15.888h-879.392c-8.64 0-15.568-7.12-15.568-15.888s6.928-15.888 15.568-15.888h879.408c8.576 0 15.568 7.136 15.568 15.888zM947.696 482.176c1.872 7.136-1.312 14.512-7.632 18-20.272 11.2-41.904 20.336-64.24 27.136-6.88 2.064-14.256-0.88-17.872-7.184-18.336-31.968-51.088-52.592-83.504-52.592-32.336 0-65.088 20.64-83.424 52.592-3.632 6.256-10.96 9.248-17.888 7.184-22.32-6.816-43.968-15.952-64.224-27.136-6.32-3.504-9.52-10.88-7.68-17.952 9.008-35.024 2.32-62.416-20.976-86.176-27.248-27.824-54.080-37.024-84.48-28.896-6.944 1.872-14.192-1.376-17.584-7.808-10.944-20.576-19.888-42.656-26.576-65.488-2.064-7.008 0.816-14.56 7.008-18.256 23.52-14.032 51.6-38.912 51.6-77.68 0-33.008-20.272-66.4-51.6-85.088-6.192-3.696-9.072-11.28-7.008-18.288 2.64-9.008 5.632-18 8.944-26.64 2.368-6.256 8.256-10.128 14.512-10.128 1.872 0 3.76 0.368 5.632 1.104 8 3.2 12 12.4 8.88 20.528-1.632 4.256-3.184 8.624-4.624 13.008 34.592 25.216 56.352 65.408 56.352 105.504 0 38.4-19.904 72.928-56.304 98.256 4.32 12.96 9.44 25.6 15.264 37.712 36.464-5.584 70.672 7.744 102 39.696 28.144 28.768 38.768 63.728 31.76 104.128 11.952 5.936 24.336 11.2 36.96 15.568 24.704-35.28 64.112-57.536 103.44-57.536 39.344 0 78.816 22.256 103.504 57.536 12.688-4.368 25.024-9.632 36.976-15.568-7.056-40.4 3.632-75.424 31.76-104.128 6.064-6.192 15.952-6.192 22.016 0 6.064 6.208 6.064 16.272 0 22.448-23.248 23.792-29.936 51.184-20.992 86.144zM774.464 350.4c-82.416 0-149.472-68.336-149.472-152.464 0-84.032 67.040-152.464 149.472-152.464s149.536 68.432 149.536 152.464c0 84.128-67.104 152.464-149.536 152.464zM774.464 77.248c-65.216 0-118.32 54.16-118.32 120.688 0 66.608 53.088 120.768 118.32 120.768 65.296 0 118.368-54.16 118.368-120.768 0.016-66.528-53.072-120.688-118.368-120.688zM455.024 380.32c11.696 11.936 22.576 15.808 35.2 12.496 6.88-1.872 14.192 1.376 17.648 7.808 5.744 10.896 10.448 22.512 14 34.464 2.064 7.056-0.88 14.56-7.056 18.256-10.128 6.064-22.208 16.576-22.208 32.384 0 12.688 7.504 23.584 22.208 32.336 6.192 3.68 9.12 11.264 7.056 18.256-3.552 12.064-8.256 23.696-14 34.528-3.44 6.432-10.688 9.696-17.648 7.824-12.56-3.376-23.456 0.56-35.2 12.512-9.824 10.064-12.384 20.816-8.576 35.888 1.808 7.072-1.312 14.512-7.632 17.952-10.688 5.872-22.080 10.688-33.84 14.32-6.88 2.064-14.256-0.88-17.888-7.2-7.872-13.76-21.824-22.64-35.456-22.64-13.584 0-27.52 8.88-35.392 22.64-3.632 6.32-11.008 9.264-17.888 7.2-11.76-3.632-23.136-8.448-33.84-14.32-6.32-3.44-9.504-10.88-7.696-17.952 3.888-15.072 1.312-25.824-8.56-35.888-11.696-11.952-22.64-15.888-35.152-12.512-6.944 1.872-14.192-1.376-17.648-7.824-5.744-10.88-10.432-22.448-14-34.528-2.064-7.008 0.88-14.576 7.072-18.256 14.688-8.752 22.144-19.648 22.144-32.336 0-13.888-8.688-28.080-22.144-36.144-6.192-3.68-9.136-11.248-7.072-18.256 3.504-12.016 8.256-23.664 14-34.528 3.376-6.368 10.688-9.632 17.648-7.808 14.576 3.936 25.264 1.376 35.152-8.688 9.872-10.064 12.448-20.848 8.56-35.904-1.808-7.056 1.376-14.496 7.696-17.936 10.624-5.952 22.064-10.768 33.84-14.336 1.504-0.432 3.008-0.672 4.432-0.672 5.44 0 10.64 2.944 13.44 7.872 7.872 13.76 21.76 22.64 35.392 22.64s27.584-8.88 35.456-22.64c3.632-6.32 11.008-9.328 17.888-7.2 11.76 3.584 23.136 8.384 33.84 14.336 6.32 3.44 9.504 10.88 7.632 17.936-3.776 15.072-1.216 25.856 8.592 35.92zM433.008 402.688c-14.64-14.944-21.008-32.896-18.944-53.344-2.512-1.12-5.008-2.192-7.568-3.184-13.952 17.008-34.4 27.52-54.848 27.52-20.384 0-40.848-10.512-54.784-27.52-2.56 1.008-5.056 2.064-7.568 3.184 2.064 20.448-4.32 38.4-19.008 53.408-14.64 14.896-32.080 21.456-52.336 19.392-1.056 2.496-2.128 5.072-3.056 7.648 16.64 14.256 26.96 35.072 26.96 55.968 0 20.272-9.44 38.464-26.896 52.4 1.008 2.56 2 5.2 3.12 7.696 18.704-1.056 36.272 6.624 52.224 22.896 14.688 15.008 21.072 32.896 19.008 53.408 2.496 1.12 5.008 2.192 7.568 3.12 13.952-17.008 34.4-27.52 54.784-27.52 20.448 0 40.896 10.512 54.848 27.52 2.56-0.944 5.056-2 7.568-3.12-2.064-20.512 4.32-38.4 18.944-53.408 15.952-16.272 33.392-23.888 52.288-22.896 1.056-2.496 2.128-5.136 3.12-7.696-17.44-13.952-26.896-32.144-26.896-52.4s9.44-38.528 26.896-52.4c-1.008-2.624-2.064-5.184-3.184-7.744-18.96 1.040-36.288-6.656-52.24-22.928zM351.664 570.48c-45.776 0-83.056-38.016-83.056-84.736 0-46.704 37.28-84.8 83.056-84.8 45.84 0 83.104 38.096 83.104 84.8 0 46.72-37.28 84.736-83.104 84.736zM351.664 432.72c-28.656 0-51.968 23.76-51.968 53.024 0 29.2 23.328 52.976 51.968 52.976 28.704 0 51.968-23.76 51.968-52.976-0.016-29.264-23.28-53.024-51.968-53.024z" />
<glyph unicode="&#xe922;" glyph-name="x" d="M742.464 137.824l-230.208 229.12-229.152-230.192c-22.304-22.384-58.656-22.496-81.040-0.256-22.384 22.288-22.512 58.64-0.208 81.024l229.104 230.224-230.208 229.152c-22.384 22.272-22.544 58.64-0.24 81.008s58.624 22.512 81.008 0.24l230.224-229.152 229.168 230.208c22.272 22.416 58.624 22.544 81.008 0.272 22.416-22.304 22.512-58.656 0.256-81.040l-229.152-230.192 230.24-229.136c22.368-22.32 22.512-58.64 0.208-81.056-22.272-22.384-58.624-22.496-81.008-0.224z" />
<glyph unicode="&#xe923;" glyph-name="youtube" d="M211.664 372.336h49.264v-243.328h47.664v243.328h49.44v41.312h-146.368v-41.312zM455.168 179.408c-3.84-4.416-8.288-8.272-13.072-11.184-4.784-3.056-8.848-4.384-11.712-4.384-4.016 0-6.944 0.96-8.848 3.248-1.536 2.288-2.512 5.76-2.512 10.768v161.136h-42.32v-175.584c0-12.496 2.496-21.936 7.296-28.112 5.008-6.336 12.32-9.408 22.128-9.408 8.064 0 16.144 2.096 24.624 6.72 8.464 4.24 16.528 10.768 24.432 19.248v-22.912h42.32v210.064h-42.32v-159.6zM504.592 574.464c6.528 0 11.568 1.712 15.392 5.184 3.84 3.664 5.776 8.448 5.776 14.624v126.16c0 5.008-1.936 9.024-5.776 12.304-3.808 3.056-9.040 4.624-15.392 4.624-5.76 0-10.384-1.536-14.208-4.624-3.472-3.264-5.392-7.296-5.392-12.304v-126.16c0-6.336 1.712-11.152 5.184-14.624 3.264-3.648 8.272-5.184 14.416-5.184zM609.808 341.552c-6.528 0-13.072-1.536-19.424-5.008-6.336-3.264-12.512-8.256-18.288-14.608v91.728h-42.704v-284.672h42.672v15.968c5.616-6.352 11.744-11.168 18.096-14.24 6.56-3.072 13.856-4.416 22.336-4.416 12.496 0 22.128 3.84 28.672 11.744 6.72 8.064 10 19.424 10 34.208v116.576c0 17.28-3.488 30.352-10.576 39.408-7.136 8.864-17.344 13.312-30.784 13.312zM607.504 178.064c0-6.736-1.152-11.392-3.664-14.4-2.496-3.056-6.16-4.448-11.376-4.448-3.648 0-6.912 0.752-10.16 2.096-3.28 1.552-6.768 4.24-10.24 7.52v130.976c2.912 2.912 5.776 5.008 8.896 6.336 2.88 1.328 5.92 2.112 8.848 2.112 5.76 0 10.192-1.936 13.28-5.584 3.056-3.664 4.4-9.024 4.4-16.176v-108.432zM737.696 344.24c-19.024 0-34.432-5.744-46.336-17.104-11.936-11.552-18.112-26.4-18.112-44.624v-94.24c0-20.4 5.584-36.352 16.368-47.728 10.96-11.504 25.984-17.264 44.8-17.264 21.152 0 36.944 5.408 47.52 16.176 10.784 10.96 15.952 27.28 15.952 48.832v10.752h-43.456v-9.648c0-12.304-1.552-20.384-4.24-24.032-2.864-3.664-7.664-5.424-14.784-5.424-6.736 0-11.536 2.144-14.24 6.368-2.896 4.224-4.224 11.936-4.224 23.072v39.6h80.944v53.504c0 20-5.184 35.184-15.568 45.776s-25.2 15.984-44.624 15.984zM754.432 261.728h-37.472v21.152c0 8.848 1.536 15.184 4.4 18.864 2.912 3.84 7.68 5.728 14.432 5.728 6.512 0 11.36-1.888 14.208-5.728 2.896-3.664 4.432-10.016 4.432-18.864v-21.152zM613.088 771.6h47.488v-177.536c0-5.392 1.168-9.424 3.056-11.712 1.968-2.512 5.216-3.84 9.648-3.84 3.68 0 8.080 1.712 13.456 5.008 5.2 3.248 10.192 7.296 14.64 12.304v175.776h47.68v-231.392h-47.68v25.6c-8.672-9.44-17.904-16.72-27.488-21.712-9.456-4.816-18.704-7.312-27.504-7.312-11.152 0-19.44 3.472-25.008 10.368-5.584 6.944-8.256 17.136-8.256 30.976v193.472h-0.032zM435.936 718.688c0 17.904 6.544 32.144 19.232 42.704 12.912 10.576 30.192 15.952 51.76 15.952 19.776 0 35.952-5.568 48.656-16.72 12.496-11.152 18.864-25.76 18.864-43.264v-119.648c0-19.808-6.352-35.2-18.48-46.528-12.496-11.36-29.424-16.944-51.152-16.944-20.752 0-37.504 5.952-50.016 17.504-12.48 11.712-18.848 27.312-18.848 46.912-0.016 0-0.016 120.032-0.016 120.032zM306.128 853.92l34.8-125.408h3.456l33.28 125.408h54.416l-62.496-183.664v-130.016h-53.488v124.24l-64.032 189.44h54.064zM930.416 193.648c0-83.664-68.464-151.568-152.896-151.568h-531.040c-84.416 0-152.912 67.888-152.912 151.568v121.904c0 83.664 68.496 151.584 152.912 151.584h531.040c84.416 0 152.896-67.904 152.896-151.584v-121.904z" />
</font>
</defs>
</svg>
